<?xml version="1.0" encoding="utf-8"?>
<!-- Generator: Adobe Illustrator 22.1.0, SVG Export Plug-In . SVG Version: 6.00 Build 0)  -->
<svg version="1.1" id="Ebene_1" xmlns="http://www.w3.org/2000/svg" xmlns:xlink="http://www.w3.org/1999/xlink" x="0px" y="0px"
	 viewBox="0 0 60 60" style="enable-background:new 0 0 60 60;" xml:space="preserve">
<style type="text/css">
	.st0{fill:#FFFFFF;}
</style>
<g>
	<g>
		<path class="st0" d="M16.2,38c0.2-0.1,0.5-0.3,0.6-0.5l0.8-0.7c1.3-1.2,1.9-2.3,1.9-3.3c0-1.7-1.3-2.8-3.3-2.8c-1.7,0-3,1-3.5,2.7
			l0,0.1l1.8,0.5l0-0.1c0.3-1,0.9-1.5,1.7-1.5c0.8,0,1.3,0.4,1.3,1.2c0,0.8-0.5,1.4-1.6,2.4l-3.4,3.4l0,0v0.3h7.2v-1.7h-2.8
			C16.7,37.9,16.4,38,16.2,38z"/>
		<path class="st0" d="M26.3,30.6c-2.6,0-4.7,2-4.7,4.6c0,2.5,2.1,4.6,4.7,4.6c2.6,0,4.7-2.1,4.7-4.6C31,32.6,29,30.6,26.3,30.6z
			 M26.3,38c-1.5,0-2.7-1.2-2.7-2.9c0-1.7,1.1-2.8,2.7-2.8c1.6,0,2.7,1.2,2.7,2.8C29,36.8,27.9,38,26.3,38z"/>
		<polygon class="st0" points="32.9,32.4 34.7,32.4 34.7,39.6 36.6,39.6 36.6,30.7 32.9,30.7 		"/>
		<path class="st0" d="M43.4,30.6c-2.2,0-3.9,1.5-3.9,3.6c0,2,1.4,3.4,3.5,3.4c0.3,0,0.6,0,0.8-0.1c-0.1,0.1-0.3,0.3-0.4,0.4
			l-2.3,3.3h2.2l2.6-3.8c0.9-1.3,1.3-2.1,1.3-3.2C47.2,32.1,45.6,30.6,43.4,30.6z M43.4,36.1c-1.1,0-1.9-0.8-1.9-1.9
			c0-1.1,0.8-1.9,1.9-1.9c1.1,0,1.9,0.8,1.9,1.9C45.3,35.1,44.6,36.1,43.4,36.1z"/>
		<path class="st0" d="M24.2,25.3c0.9,0,1.6-0.3,2.1-0.9l0,0.8h1.9v-4.3c0-2-1.2-3.2-3.1-3.2c-1.4,0-2.3,0.4-3.1,1.3l-0.1,0.1
			l1.1,1.1l0.1-0.1c0.3-0.4,0.8-0.8,1.8-0.8c0.9,0,1.3,0.4,1.3,1.4h-1.8c-1.8,0-2.9,0.8-2.9,2.2C21.5,24.4,22.5,25.3,24.2,25.3z
			 M24.5,22.1h1.7v0.5c0,0.7-0.6,1.2-1.6,1.2c-0.6,0-1.3-0.1-1.3-0.8C23.4,22.2,24,22.1,24.5,22.1z"/>
		<path class="st0" d="M35,17.7c-1,0-1.8,0.4-2.4,1.2v-6.1h-1.9v12.4h1.9l0-1c0.5,0.7,1.4,1.2,2.4,1.2c1.9,0,3.4-1.7,3.4-3.8
			C38.4,19.3,36.9,17.7,35,17.7z M34.5,23.6c-1.2,0-2-0.8-2-2.1c0-1.2,0.8-2.1,2-2.1c1.2,0,1.9,0.8,1.9,2.1
			C36.4,22.8,35.7,23.6,34.5,23.6z"/>
	</g>
	<path class="st0" d="M30,60C13.5,60,0,46.5,0,30S13.5,0,30,0c16.5,0,30,13.5,30,30S46.5,60,30,60z M30,2.8C15,2.8,2.8,15,2.8,30
		C2.8,45,15,57.2,30,57.2S57.2,45,57.2,30C57.2,15,45,2.8,30,2.8z"/>
</g>
</svg>
