<?xml version="1.0" encoding="utf-8"?>
<!-- Generator: Adobe Illustrator 22.1.0, SVG Export Plug-In . SVG Version: 6.00 Build 0)  -->
<svg version="1.1" id="Ebene_1" xmlns="http://www.w3.org/2000/svg" xmlns:xlink="http://www.w3.org/1999/xlink" x="0px" y="0px"
	 viewBox="0 0 60 60" style="enable-background:new 0 0 60 60;" xml:space="preserve">
<style type="text/css">
	.st0{fill:#6290E7;}
</style>
<path class="st0" d="M30,0C13.5,0,0,13.5,0,30c0,16.5,13.5,30,30,30s30-13.5,30-30C60,13.5,46.5,0,30,0z M34.1,7.6
	c3.7,0.7,7,2.2,9.9,4.4l-9.9,9.8V7.6z M34.1,39.2l9.3,9.3c-2.7,2-5.9,3.4-9.3,4V39.2z M35.6,30.5l13.3-13.2c2.5,3.6,3.9,8,3.9,12.7
	c0,5-1.6,9.6-4.4,13.4L35.6,30.5z M7.2,30c0-11.5,8.6-21,19.7-22.6v45.1C15.8,51,7.2,41.5,7.2,30z"/>
</svg>
